# Blender v2.92.0 OBJ File: ''
# www.blender.org
mtllib pentagon.mtl
o pentagon_yellow_block_Cube.003
v -0.000000 0.000000 -0.001329
v -0.000000 0.038100 -0.001329
v -0.010789 0.000000 0.015873
v -0.011940 0.002032 0.017708
v -0.011603 0.000595 0.017170
v -0.014201 0.002032 0.016092
v -0.012833 0.000000 0.014413
v -0.013800 0.000595 0.015600
v -0.013310 0.002032 0.017235
v -0.012029 0.000000 0.015448
v -0.012935 0.000595 0.016711
v -0.012833 0.038100 0.014413
v -0.014201 0.036068 0.016092
v -0.013800 0.037505 0.015600
v -0.011940 0.036068 0.017708
v -0.010789 0.038100 0.015873
v -0.011603 0.037505 0.017170
v -0.012029 0.038100 0.015448
v -0.013310 0.036068 0.017235
v -0.012935 0.037505 0.016711
v -0.020074 0.000000 -0.006755
v -0.022213 0.002032 -0.007333
v -0.021586 0.000595 -0.007164
v -0.021345 0.002032 -0.009898
v -0.019288 0.000000 -0.009072
v -0.020743 0.000595 -0.009656
v -0.022188 0.002032 -0.008754
v -0.020054 0.000000 -0.008040
v -0.021563 0.000595 -0.008545
v -0.019288 0.038100 -0.009072
v -0.021345 0.036068 -0.009898
v -0.020743 0.037505 -0.009656
v -0.022213 0.036068 -0.007333
v -0.020074 0.038100 -0.006755
v -0.021586 0.037505 -0.007164
v -0.022188 0.036068 -0.008754
v -0.020054 0.038100 -0.008040
v -0.021563 0.037505 -0.008545
v 0.012833 0.000000 0.014413
v 0.014201 0.002032 0.016092
v 0.013800 0.000595 0.015600
v 0.011940 0.002032 0.017708
v 0.010789 0.000000 0.015873
v 0.011603 0.000595 0.017170
v 0.012029 0.000000 0.015448
v 0.013310 0.002032 0.017235
v 0.012935 0.000595 0.016711
v 0.010789 0.038100 0.015873
v 0.011940 0.036068 0.017708
v 0.011603 0.037505 0.017170
v 0.014201 0.036068 0.016092
v 0.012833 0.038100 0.014413
v 0.013800 0.037505 0.015600
v 0.013310 0.036068 0.017235
v 0.012029 0.038100 0.015448
v 0.012935 0.037505 0.016711
v 0.019288 0.000000 -0.009072
v 0.021345 0.002032 -0.009898
v 0.020743 0.000595 -0.009656
v 0.022213 0.002032 -0.007333
v 0.020074 0.000000 -0.006755
v 0.021586 0.000595 -0.007164
v 0.022188 0.002032 -0.008754
v 0.020054 0.000000 -0.008040
v 0.021563 0.000595 -0.008545
v 0.020074 0.038100 -0.006755
v 0.022213 0.036068 -0.007333
v 0.021586 0.037505 -0.007164
v 0.021345 0.036068 -0.009898
v 0.019288 0.038100 -0.009072
v 0.020743 0.037505 -0.009656
v 0.022188 0.036068 -0.008754
v 0.020054 0.038100 -0.008040
v 0.021563 0.037505 -0.008545
v 0.001283 0.038100 -0.021099
v 0.001420 0.036068 -0.023214
v 0.001380 0.037505 -0.022595
v -0.001420 0.036068 -0.023214
v -0.001283 0.038100 -0.021099
v -0.001380 0.037505 -0.022595
v 0.000000 0.036068 -0.023607
v -0.000000 0.038100 -0.021456
v -0.000000 0.037505 -0.022977
v -0.001283 0.000000 -0.021099
v -0.001420 0.002032 -0.023214
v -0.001380 0.000595 -0.022595
v 0.001420 0.002032 -0.023214
v 0.001283 0.000000 -0.021099
v 0.001380 0.000595 -0.022595
v -0.000000 0.000000 -0.021456
v 0.000000 0.002032 -0.023607
v -0.000000 0.000595 -0.022977
vt 0.718822 0.029303
vt 0.730852 0.033346
vt 0.721614 0.040891
vt 0.709480 0.040139
vt 0.717419 0.029729
vt 0.717181 0.051685
vt 0.709481 0.041565
vt 0.686374 0.033371
vt 0.706477 0.033371
vt 0.706477 0.034211
vt 0.686374 0.034211
vt 0.731711 0.034535
vt 0.731731 0.047644
vt 0.732155 0.013538
vt 0.732386 0.014251
vt 0.720023 0.014212
vt 0.724218 0.025374
vt 0.723581 0.025796
vt 0.731459 0.033813
vt 0.686374 0.065488
vt 0.706477 0.065488
vt 0.706477 0.066344
vt 0.686374 0.066344
vt 0.730865 0.048779
vt 0.718604 0.052165
vt 0.717826 0.052123
vt 0.710784 0.021757
vt 0.710178 0.021290
vt 0.706477 0.050528
vt 0.686374 0.050528
vt 0.686374 0.049672
vt 0.706477 0.049672
vt 0.709250 0.040852
vt 0.718055 0.029306
vt 0.686374 0.051384
vt 0.706477 0.051384
vt 0.686374 0.035050
vt 0.706477 0.035050
vt 0.686374 0.019217
vt 0.706477 0.019217
vt 0.731482 0.048351
vt 0.709906 0.007458
vt 0.710155 0.006751
vt 0.686374 0.003322
vt 0.706477 0.003322
vt 0.706477 0.017476
vt 0.686374 0.017476
vt 0.706477 0.081821
vt 0.686374 0.081821
vt 0.686374 0.067199
vt 0.706477 0.067199
vt 0.723811 0.002980
vt 0.724455 0.003418
vt 0.706477 0.082661
vt 0.686374 0.082661
vt 0.686374 0.002483
vt 0.706477 0.002483
vt 0.732157 0.014964
vt 0.723033 0.002938
vt 0.722814 0.025800
vt 0.686374 0.018347
vt 0.706477 0.018347
vt 0.709926 0.020568
vt 0.710771 0.006324
vt 0.733509 0.048629
vt 0.733072 0.049555
vt 0.732273 0.048949
vt 0.732572 0.048190
vt 0.732296 0.050225
vt 0.731620 0.049441
vt 0.734168 0.013254
vt 0.734379 0.014256
vt 0.733377 0.014254
vt 0.733156 0.013468
vt 0.734166 0.015257
vt 0.733156 0.015039
vt 0.707468 0.041849
vt 0.707257 0.040847
vt 0.708259 0.040849
vt 0.708480 0.041634
vt 0.707471 0.039846
vt 0.708480 0.040063
vt 0.708128 0.006474
vt 0.708564 0.005547
vt 0.709364 0.006153
vt 0.709064 0.006913
vt 0.709341 0.004877
vt 0.710016 0.005662
vt 0.731599 0.032714
vt 0.732251 0.033244
vt 0.732301 0.031933
vt 0.733073 0.032652
vt 0.723869 0.026728
vt 0.723033 0.026764
vt 0.724166 0.027687
vt 0.723129 0.027790
vt 0.732546 0.034029
vt 0.733509 0.033612
vt 0.724576 0.026281
vt 0.725089 0.027190
vt 0.710038 0.022388
vt 0.709386 0.021859
vt 0.709336 0.023170
vt 0.708563 0.022451
vt 0.717767 0.028375
vt 0.718604 0.028339
vt 0.717470 0.027416
vt 0.718508 0.027313
vt 0.709090 0.021074
vt 0.708128 0.021490
vt 0.717060 0.028822
vt 0.716547 0.027913
vt 0.723265 0.002005
vt 0.724118 0.002071
vt 0.723385 0.000970
vt 0.724440 0.001117
vt 0.717519 0.053032
vt 0.716801 0.052568
vt 0.717197 0.053986
vt 0.716269 0.053464
vt 0.724836 0.002535
vt 0.725367 0.001639
vt 0.718372 0.053098
vt 0.718251 0.054133
vn 0.0000 -1.0000 0.0000
vn -0.6839 0.1913 -0.7040
vn -0.6839 -0.1913 -0.7040
vn -0.9271 -0.2054 -0.3134
vn -0.9271 0.2054 -0.3134
vn 0.0000 1.0000 -0.0000
vn 0.1696 0.1897 0.9671
vn 0.1696 -0.1897 0.9671
vn 0.5696 -0.2019 0.7968
vn 0.5696 0.2019 0.7968
vn -0.5696 -0.2019 0.7968
vn -0.5696 0.2019 0.7968
vn -0.8602 0.1898 0.4734
vn -0.8602 -0.1898 0.4734
vn -0.1696 0.1897 0.9671
vn -0.1696 -0.1897 0.9671
vn -0.9708 0.1916 0.1446
vn -0.9708 -0.1916 0.1446
vn -0.4034 0.1878 -0.8955
vn -0.4034 -0.1878 -0.8955
vn 0.6839 0.1913 -0.7040
vn 0.6839 -0.1913 -0.7040
vn 0.4034 -0.1878 -0.8955
vn 0.4034 0.1878 -0.8955
vn 0.9708 -0.1916 0.1446
vn 0.9708 0.1916 0.1446
vn 0.8602 0.1898 0.4734
vn 0.8602 -0.1898 0.4734
vn 0.9271 -0.2054 -0.3134
vn 0.9271 0.2054 -0.3134
vn 0.0000 0.1985 -0.9801
vn 0.0000 -0.1985 -0.9801
vn -0.6793 -0.6969 -0.2300
vn -0.7180 -0.6862 0.1166
vn -0.2003 -0.9774 -0.0681
vn -0.2163 -0.9753 0.0454
vn -0.5001 -0.6857 -0.5289
vn -0.1444 -0.9752 -0.1679
vn -0.6793 0.6969 -0.2300
vn -0.5001 0.6857 -0.5289
vn -0.2003 0.9774 -0.0681
vn -0.1444 0.9752 -0.1679
vn -0.7180 0.6862 0.1166
vn -0.2163 0.9753 0.0454
vn 0.6793 -0.6969 -0.2300
vn 0.5001 -0.6857 -0.5289
vn 0.2003 -0.9774 -0.0681
vn 0.1444 -0.9752 -0.1679
vn 0.7180 -0.6862 0.1166
vn 0.2163 -0.9753 0.0454
vn 0.6793 0.6969 -0.2300
vn 0.7180 0.6862 0.1166
vn 0.2003 0.9774 -0.0681
vn 0.2163 0.9753 0.0454
vn 0.5001 0.6857 -0.5289
vn 0.1444 0.9752 -0.1679
vn -0.1241 -0.9769 0.1739
vn -0.0267 -0.9752 0.2199
vn -0.1178 -0.6841 0.7198
vn -0.4189 -0.6935 0.5862
vn -0.0267 0.9752 0.2199
vn -0.1242 0.9769 0.1739
vn -0.4189 0.6935 0.5862
vn -0.1178 0.6841 0.7198
vn -0.1992 -0.9752 0.0965
vn -0.6427 -0.6843 0.3444
vn -0.1992 0.9752 0.0965
vn -0.6427 0.6843 0.3444
vn 0.1242 0.9769 0.1739
vn 0.0267 0.9752 0.2199
vn 0.1178 0.6841 0.7198
vn 0.4189 0.6935 0.5862
vn 0.0267 -0.9752 0.2199
vn 0.1241 -0.9769 0.1739
vn 0.4189 -0.6935 0.5862
vn 0.1178 -0.6841 0.7198
vn 0.1992 0.9752 0.0965
vn 0.6427 0.6843 0.3444
vn 0.1992 -0.9752 0.0965
vn 0.6427 -0.6843 0.3444
vn -0.0000 0.9764 -0.2159
vn 0.1005 0.9750 -0.1981
vn 0.3067 0.6821 -0.6638
vn -0.0000 0.6900 -0.7238
vn 0.1005 -0.9750 -0.1981
vn 0.0000 -0.9764 -0.2159
vn 0.0000 -0.6900 -0.7238
vn 0.3067 -0.6821 -0.6638
vn -0.1005 0.9750 -0.1981
vn -0.3067 0.6821 -0.6638
vn -0.1005 -0.9750 -0.1981
vn -0.3067 -0.6821 -0.6638
usemtl toybox
s 1
f 43/1/1 3/2/1 1/3/1
f 61/4/1 39/5/1 1/3/1
f 88/6/1 57/7/1 1/3/1
f 31/8/2 24/9/3 27/10/4 36/11/5
f 7/12/1 21/13/1 1/3/1
f 30/14/6 37/15/6 2/16/6
f 12/17/6 18/18/6 2/16/6
f 10/19/1 7/12/1 1/3/1
f 49/20/7 42/21/8 46/22/9 54/23/10
f 25/24/1 84/25/1 1/3/1
f 90/26/1 88/6/1 1/3/1
f 3/2/1 10/19/1 1/3/1
f 48/27/6 55/28/6 2/16/6
f 9/29/11 19/30/12 13/31/13 6/32/14
f 64/33/1 61/4/1 1/3/1
f 39/5/1 45/34/1 1/3/1
f 42/21/8 49/20/7 15/35/15 4/36/16
f 6/32/14 13/31/13 33/37/17 22/38/18
f 24/9/3 31/8/2 78/39/19 85/40/20
f 21/13/1 28/41/1 1/3/1
f 66/42/6 73/43/6 2/16/6
f 69/44/21 58/45/22 87/46/23 76/47/24
f 45/34/1 43/1/1 1/3/1
f 60/48/25 67/49/26 51/50/27 40/51/28
f 82/52/6 79/53/6 2/16/6
f 84/25/1 90/26/1 1/3/1
f 67/49/26 60/48/25 63/54/29 72/55/30
f 28/41/1 25/24/1 1/3/1
f 72/56/30 63/57/29 58/45/22 69/44/21
f 37/15/6 34/58/6 2/16/6
f 79/53/6 30/14/6 2/16/6
f 75/59/6 82/52/6 2/16/6
f 18/18/6 16/60/6 2/16/6
f 54/23/10 46/22/9 40/51/28 51/50/27
f 81/61/31 91/62/32 85/40/20 78/39/19
f 16/60/6 48/27/6 2/16/6
f 52/63/6 66/42/6 2/16/6
f 36/11/5 27/10/4 22/38/18 33/37/17
f 73/43/6 70/64/6 2/16/6
f 57/7/1 64/33/1 1/3/1
f 70/64/6 75/59/6 2/16/6
f 34/58/6 12/17/6 2/16/6
f 76/47/24 87/46/23 91/62/32 81/61/31
f 55/28/6 52/63/6 2/16/6
f 22/65/18 27/66/4 29/67/33 23/68/34
f 23/68/34 29/67/33 28/41/35 21/13/36
f 27/66/4 24/69/3 26/70/37 29/67/33
f 29/67/33 26/70/37 25/24/38 28/41/35
f 31/71/2 36/72/5 38/73/39 32/74/40
f 32/74/40 38/73/39 37/15/41 30/14/42
f 36/72/5 33/75/17 35/76/43 38/73/39
f 38/73/39 35/76/43 34/58/44 37/15/41
f 58/77/22 63/78/29 65/79/45 59/80/46
f 59/80/46 65/79/45 64/33/47 57/7/48
f 63/78/29 60/81/25 62/82/49 65/79/45
f 65/79/45 62/82/49 61/4/50 64/33/47
f 67/83/26 72/84/30 74/85/51 68/86/52
f 68/86/52 74/85/51 73/43/53 66/42/54
f 72/84/30 69/87/21 71/88/55 74/85/51
f 74/85/51 71/88/55 70/64/56 73/43/53
f 10/19/57 3/2/58 5/89/59 11/90/60
f 11/90/60 5/89/59 4/91/16 9/92/11
f 16/60/61 18/18/62 20/93/63 17/94/64
f 17/94/64 20/93/63 19/95/12 15/96/15
f 7/12/65 10/19/57 11/90/60 8/97/66
f 8/97/66 11/90/60 9/92/11 6/98/14
f 18/18/62 12/17/67 14/99/68 20/93/63
f 20/93/63 14/99/68 13/100/13 19/95/12
f 55/28/69 48/27/70 50/101/71 56/102/72
f 56/102/72 50/101/71 49/103/7 54/104/10
f 43/1/73 45/34/74 47/105/75 44/106/76
f 44/106/76 47/105/75 46/107/9 42/108/8
f 52/63/77 55/28/69 56/102/72 53/109/78
f 53/109/78 56/102/72 54/104/10 51/110/27
f 45/34/74 39/5/79 41/111/80 47/105/75
f 47/105/75 41/111/80 40/112/28 46/107/9
f 82/52/81 75/59/82 77/113/83 83/114/84
f 83/114/84 77/113/83 76/115/24 81/116/31
f 88/6/85 90/26/86 92/117/87 89/118/88
f 89/118/88 92/117/87 91/119/32 87/120/23
f 79/53/89 82/52/81 83/114/84 80/121/90
f 80/121/90 83/114/84 81/116/31 78/122/19
f 90/26/86 84/25/91 86/123/92 92/117/87
f 92/117/87 86/123/92 85/124/20 91/119/32
f 6/98/14 22/65/18 23/68/34 8/97/66
f 8/97/66 23/68/34 21/13/36 7/12/65
f 60/81/25 40/112/28 41/111/80 62/82/49
f 62/82/49 41/111/80 39/5/79 61/4/50
f 42/108/8 4/91/16 5/89/59 44/106/76
f 44/106/76 5/89/59 3/2/58 43/1/73
f 12/17/67 34/58/44 35/76/43 14/99/68
f 14/99/68 35/76/43 33/75/17 13/100/13
f 48/27/70 16/60/61 17/94/64 50/101/71
f 50/101/71 17/94/64 15/96/15 49/103/7
f 51/110/27 67/83/26 68/86/52 53/109/78
f 53/109/78 68/86/52 66/42/54 52/63/77
f 84/25/91 25/24/38 26/70/37 86/123/92
f 86/123/92 26/70/37 24/69/3 85/124/20
f 30/14/42 79/53/89 80/121/90 32/74/40
f 32/74/40 80/121/90 78/122/19 31/71/2
f 87/120/23 58/77/22 59/80/46 89/118/88
f 89/118/88 59/80/46 57/7/48 88/6/85
f 69/87/21 76/115/24 77/113/83 71/88/55
f 71/88/55 77/113/83 75/59/82 70/64/56
f 4/36/16 15/35/15 19/30/12 9/29/11
