# Blender v2.92.0 OBJ File: ''
# www.blender.org
mtllib star.mtl
o star_green_block_star0_block
v -0.000030 0.000000 0.001549
v -0.000030 0.038100 0.001549
v 0.006429 0.000000 -0.009092
v 0.007380 0.002032 -0.010659
v 0.007101 0.000595 -0.010200
v 0.009909 0.002032 -0.008940
v 0.008636 0.000000 -0.007597
v 0.009536 0.000595 -0.008547
v 0.008636 0.038100 -0.007597
v 0.009909 0.036068 -0.008940
v 0.009536 0.037505 -0.008547
v 0.007380 0.036068 -0.010659
v 0.006429 0.038100 -0.009092
v 0.007101 0.037505 -0.010200
v -0.006436 0.038100 -0.009091
v -0.007380 0.036068 -0.010659
v -0.007103 0.037505 -0.010200
v -0.009909 0.036068 -0.008940
v -0.008642 0.038100 -0.007595
v -0.009538 0.037505 -0.008546
v -0.008642 0.000000 -0.007595
v -0.009909 0.002032 -0.008940
v -0.009538 0.000595 -0.008546
v -0.007380 0.002032 -0.010659
v -0.006436 0.000000 -0.009091
v -0.007103 0.000595 -0.010200
v -0.011672 0.000000 0.006854
v -0.013354 0.002032 0.007620
v -0.012861 0.000595 0.007396
v -0.014336 0.002032 0.004714
v -0.012526 0.000000 0.004313
v -0.013806 0.000595 0.004596
v -0.012526 0.038100 0.004313
v -0.014336 0.036068 0.004714
v -0.013806 0.037505 0.004596
v -0.013354 0.036068 0.007620
v -0.011672 0.038100 0.006854
v -0.012861 0.037505 0.007396
v 0.012521 0.000000 0.004314
v 0.014336 0.002032 0.004714
v 0.013805 0.000595 0.004597
v 0.013354 0.002032 0.007620
v 0.011668 0.000000 0.006855
v 0.012860 0.000595 0.007396
v 0.011668 0.038100 0.006855
v 0.013354 0.036068 0.007620
v 0.012860 0.037505 0.007396
v 0.014336 0.036068 0.004714
v 0.012521 0.038100 0.004314
v 0.013805 0.037505 0.004597
v -0.010002 0.000000 0.018088
v -0.011405 0.002032 0.020414
v -0.010994 0.000595 0.019733
v -0.013985 0.002032 0.018583
v -0.012256 0.000000 0.016473
v -0.013478 0.000595 0.017965
v -0.013300 0.002032 0.020351
v -0.011669 0.000000 0.018040
v -0.012822 0.000595 0.019674
v -0.012256 0.038100 0.016473
v -0.013985 0.036068 0.018583
v -0.013478 0.037505 0.017965
v -0.011405 0.036068 0.020414
v -0.010002 0.038100 0.018088
v -0.010994 0.037505 0.019733
v -0.011669 0.038100 0.018040
v -0.013300 0.036068 0.020351
v -0.012822 0.037505 0.019674
v -0.018964 0.000000 -0.003158
v -0.021672 0.002032 -0.003831
v -0.020879 0.000595 -0.003634
v -0.020696 0.002032 -0.006698
v -0.018097 0.000000 -0.005661
v -0.019935 0.000595 -0.006394
v -0.019426 0.000000 -0.004715
v -0.022190 0.002032 -0.005607
v -0.021380 0.000595 -0.005346
v -0.018097 0.038100 -0.005661
v -0.020696 0.036068 -0.006698
v -0.019935 0.037505 -0.006394
v -0.021672 0.036068 -0.003831
v -0.018964 0.038100 -0.003158
v -0.020879 0.037505 -0.003634
v -0.022190 0.036068 -0.005607
v -0.019426 0.038100 -0.004715
v -0.021380 0.037505 -0.005346
v 0.012251 0.000000 0.016476
v 0.013985 0.002032 0.018583
v 0.013477 0.000595 0.017966
v 0.011405 0.002032 0.020414
v 0.009996 0.000000 0.018089
v 0.010992 0.000595 0.019733
v 0.011663 0.000000 0.018043
v 0.013300 0.002032 0.020351
v 0.012821 0.000595 0.019675
v 0.009996 0.038100 0.018089
v 0.011405 0.036068 0.020414
v 0.010992 0.037505 0.019733
v 0.013985 0.036068 0.018583
v 0.012251 0.038100 0.016476
v 0.013477 0.037505 0.017966
v 0.013300 0.036068 0.020351
v 0.011663 0.038100 0.018043
v 0.012821 0.037505 0.019675
v 0.018094 0.000000 -0.005663
v 0.020696 0.002032 -0.006698
v 0.019934 0.000595 -0.006395
v 0.021672 0.002032 -0.003831
v 0.018961 0.000000 -0.003159
v 0.020878 0.000595 -0.003635
v 0.019423 0.000000 -0.004716
v 0.022190 0.002032 -0.005607
v 0.021380 0.000595 -0.005346
v 0.018961 0.038100 -0.003159
v 0.021672 0.036068 -0.003831
v 0.020878 0.037505 -0.003635
v 0.020696 0.036068 -0.006698
v 0.018094 0.038100 -0.005663
v 0.019934 0.037505 -0.006395
v 0.022190 0.036068 -0.005607
v 0.019423 0.038100 -0.004716
v 0.021380 0.037505 -0.005346
v 0.001426 0.038100 -0.016730
v 0.001638 0.036068 -0.019383
v 0.001576 0.037505 -0.018606
v -0.001638 0.036068 -0.019383
v -0.001434 0.038100 -0.016729
v -0.001578 0.037505 -0.018606
v 0.000000 0.036068 -0.020414
v -0.000004 0.038100 -0.017644
v -0.000001 0.037505 -0.019603
v -0.001434 0.000000 -0.016729
v -0.001638 0.002032 -0.019383
v -0.001578 0.000595 -0.018606
v 0.001638 0.002032 -0.019383
v 0.001426 0.000000 -0.016730
v 0.001576 0.000595 -0.018606
v -0.000004 0.000000 -0.017644
v 0.000000 0.002032 -0.020414
v -0.000001 0.000595 -0.019603
v 0.001733 0.000000 0.015081
v 0.001984 0.002032 0.017005
v 0.001910 0.000595 0.016441
v -0.001984 0.002032 0.017005
v -0.001741 0.000000 0.015080
v -0.001912 0.000595 0.016441
v -0.001741 0.038100 0.015080
v -0.001984 0.036068 0.017005
v -0.001912 0.037505 0.016441
v 0.001984 0.036068 0.017005
v 0.001733 0.038100 0.015081
v 0.001910 0.037505 0.016441
vt 0.884326 0.143054
vt 0.881637 0.147199
vt 0.874485 0.145636
vt 0.870501 0.139220
vt 0.873534 0.134807
vt 0.837942 0.112414
vt 0.837942 0.131533
vt 0.832314 0.131533
vt 0.832314 0.112414
vt 0.883572 0.123603
vt 0.883611 0.122735
vt 0.892897 0.129050
vt 0.881240 0.148682
vt 0.881539 0.153913
vt 0.898370 0.134009
vt 0.897030 0.139070
vt 0.873770 0.153188
vt 0.868788 0.154800
vt 0.903052 0.129620
vt 0.899208 0.132723
vt 0.862147 0.112414
vt 0.862147 0.131533
vt 0.855821 0.131533
vt 0.855821 0.112414
vt 0.830184 0.112414
vt 0.830184 0.131533
vt 0.824015 0.131533
vt 0.824015 0.112414
vt 0.874942 0.134807
vt 0.877932 0.139104
vt 0.880430 0.154782
vt 0.875317 0.153178
vt 0.866663 0.147297
vt 0.863946 0.143378
vt 0.884646 0.135960
vt 0.883837 0.135640
vt 0.874236 0.134337
vt 0.813888 0.131533
vt 0.813888 0.112414
vt 0.814927 0.112414
vt 0.814927 0.131533
vt 0.881273 0.154719
vt 0.863186 0.112414
vt 0.863186 0.131533
vt 0.867919 0.154747
vt 0.867585 0.153944
vt 0.845799 0.112414
vt 0.845799 0.131533
vt 0.840171 0.131533
vt 0.840171 0.112414
vt 0.903484 0.128858
vt 0.883832 0.141627
vt 0.884500 0.142196
vt 0.864368 0.141965
vt 0.869278 0.140166
vt 0.854097 0.112414
vt 0.854097 0.131533
vt 0.847929 0.131533
vt 0.847929 0.112414
vt 0.896527 0.139753
vt 0.867312 0.149178
vt 0.822292 0.112414
vt 0.822292 0.131533
vt 0.872132 0.131533
vt 0.872132 0.112414
vt 0.877999 0.112414
vt 0.877999 0.131533
vt 0.864225 0.131533
vt 0.864225 0.112414
vt 0.870414 0.112414
vt 0.870414 0.131533
vt 0.815966 0.112414
vt 0.815966 0.131533
vt 0.891348 0.136441
vt 0.889875 0.135971
vt 0.846864 0.131533
vt 0.846864 0.112414
vt 0.831249 0.131533
vt 0.831249 0.112414
vt 0.879159 0.140026
vt 0.896695 0.118860
vt 0.898202 0.123877
vt 0.895355 0.118422
vt 0.896169 0.118193
vt 0.863717 0.142542
vt 0.889642 0.122199
vt 0.891100 0.121679
vt 0.899083 0.125135
vt 0.805981 0.112414
vt 0.805981 0.131533
vt 0.800114 0.131533
vt 0.800114 0.112414
vt 0.807699 0.112414
vt 0.807699 0.131533
vt 0.884410 0.122387
vt 0.895707 0.139551
vt 0.879086 0.112414
vt 0.879086 0.131533
vt 0.883766 0.134776
vt 0.884979 0.130164
vt 0.903027 0.128111
vt 0.799027 0.131533
vt 0.799027 0.112414
vt 0.884945 0.128175
vt 0.882437 0.147351
vt 0.881976 0.149022
vt 0.883261 0.147612
vt 0.882837 0.149234
vt 0.898778 0.123306
vt 0.899783 0.124719
vt 0.899515 0.122813
vt 0.900468 0.124192
vt 0.899922 0.133113
vt 0.898965 0.134558
vt 0.900624 0.133616
vt 0.899718 0.135026
vt 0.878303 0.138385
vt 0.879696 0.139416
vt 0.878850 0.137688
vt 0.880184 0.138702
vt 0.889274 0.121462
vt 0.890920 0.120885
vt 0.889004 0.120636
vt 0.890592 0.120060
vt 0.875420 0.153985
vt 0.873676 0.154006
vt 0.875394 0.154873
vt 0.873704 0.154874
vt 0.891195 0.137238
vt 0.889532 0.136718
vt 0.890894 0.138073
vt 0.889289 0.137551
vt 0.868700 0.139582
vt 0.870085 0.138524
vt 0.868187 0.138882
vt 0.869517 0.137842
vt 0.862942 0.143128
vt 0.862743 0.142252
vt 0.862000 0.143160
vt 0.861880 0.141993
vt 0.883020 0.136246
vt 0.882908 0.135355
vt 0.882298 0.136785
vt 0.882012 0.135647
vt 0.863391 0.141636
vt 0.862626 0.141085
vt 0.883840 0.136603
vt 0.883310 0.137383
vt 0.897417 0.140057
vt 0.896867 0.140740
vt 0.898025 0.140801
vt 0.897174 0.141610
vt 0.874217 0.133293
vt 0.874968 0.133747
vt 0.874208 0.132371
vt 0.875284 0.132840
vt 0.896006 0.140567
vt 0.896002 0.141529
vt 0.873468 0.133750
vt 0.873134 0.132848
vt 0.895621 0.117396
vt 0.896476 0.117194
vt 0.895584 0.116434
vt 0.896753 0.116313
vt 0.881903 0.155553
vt 0.881031 0.155656
vt 0.882465 0.156286
vt 0.881325 0.156572
vt 0.897048 0.117859
vt 0.897631 0.117095
vt 0.882214 0.154732
vt 0.883023 0.155251
vt 0.882691 0.123051
vt 0.882773 0.122155
vt 0.881783 0.122789
vt 0.882031 0.121638
vt 0.867329 0.155578
vt 0.866946 0.154764
vt 0.866810 0.156317
vt 0.866182 0.155321
vt 0.883582 0.121769
vt 0.883025 0.121005
vt 0.868222 0.155664
vt 0.867960 0.156572
vt 0.904030 0.128049
vt 0.904478 0.128840
vt 0.904906 0.127731
vt 0.905368 0.128825
vt 0.885439 0.141872
vt 0.885289 0.142769
vt 0.886281 0.141582
vt 0.886221 0.142768
vt 0.904056 0.129646
vt 0.904943 0.129934
vt 0.884767 0.141260
vt 0.885502 0.140686
vt 0.865721 0.149838
vt 0.865007 0.147749
vt 0.865827 0.147457
vt 0.866565 0.149562
vt 0.883268 0.130306
vt 0.883225 0.128099
vt 0.884112 0.128070
vt 0.884138 0.130300
vn 0.0000 -1.0000 0.0000
vn 0.1760 -0.1821 0.9674
vn 0.1760 0.1821 0.9674
vn 0.1373 0.1995 0.9702
vn 0.1373 -0.1995 0.9702
vn -0.0000 1.0000 -0.0000
vn 0.8706 -0.1992 0.4499
vn 0.8706 0.1992 0.4499
vn 0.8522 0.1751 0.4930
vn 0.8522 -0.1751 0.4930
vn -0.9656 -0.1964 0.1706
vn -0.9656 0.1964 0.1706
vn -0.9767 0.1745 0.1252
vn -0.9767 -0.1745 0.1252
vn -0.4160 0.1947 -0.8883
vn -0.4160 -0.1947 -0.8883
vn -0.9185 -0.2428 -0.3119
vn -0.9185 0.2428 -0.3119
vn 0.9185 -0.2429 -0.3119
vn 0.9185 0.2429 -0.3119
vn -0.1372 -0.1993 0.9703
vn -0.1372 0.1993 0.9703
vn -0.1761 0.1819 0.9674
vn -0.1761 -0.1819 0.9674
vn 0.9766 -0.1749 0.1252
vn 0.9766 0.1749 0.1252
vn 0.9655 0.1968 0.1705
vn 0.9655 -0.1968 0.1705
vn -0.8523 -0.1748 0.4930
vn -0.8523 0.1748 0.4930
vn 0.7051 0.1756 -0.6870
vn 0.7051 -0.1756 -0.6870
vn 0.6736 -0.1964 -0.7125
vn 0.6736 0.1964 -0.7125
vn 0.4161 0.1947 -0.8883
vn 0.4161 -0.1947 -0.8883
vn 0.3770 -0.1709 -0.9103
vn 0.3770 0.1709 -0.9103
vn -0.8706 -0.1990 0.4499
vn -0.8706 0.1990 0.4499
vn 0.5621 0.2389 0.7918
vn 0.5621 -0.2389 0.7918
vn -0.5620 0.2388 0.7919
vn -0.5620 -0.2388 0.7919
vn -0.7052 -0.1752 -0.6870
vn -0.7052 0.1752 -0.6870
vn -0.6736 0.1961 -0.7126
vn -0.6736 -0.1961 -0.7126
vn -0.3770 -0.1709 -0.9103
vn -0.3770 0.1709 -0.9103
vn 0.0001 -0.2357 -0.9718
vn 0.0001 0.2357 -0.9718
vn 0.0822 -0.9807 -0.1776
vn 0.1339 -0.9813 -0.1382
vn 0.5148 -0.6952 -0.5016
vn 0.2776 -0.6869 -0.6716
vn 0.1339 0.9813 -0.1382
vn 0.0822 0.9807 -0.1776
vn 0.2776 0.6869 -0.6716
vn 0.5148 0.6952 -0.5016
vn -0.0822 0.9807 -0.1777
vn -0.1341 0.9812 -0.1385
vn -0.5153 0.6946 -0.5020
vn -0.2777 0.6868 -0.6717
vn -0.1341 -0.9812 -0.1385
vn -0.0822 -0.9807 -0.1777
vn -0.2777 -0.6868 -0.6717
vn -0.5153 -0.6946 -0.5020
vn 0.1701 0.9813 0.0905
vn 0.1906 0.9812 0.0307
vn 0.7146 0.6935 0.0914
vn 0.6235 0.6939 0.3603
vn 0.1906 -0.9812 0.0307
vn 0.1701 -0.9813 0.0905
vn 0.6235 -0.6939 0.3603
vn 0.7146 -0.6935 0.0914
vn -0.1911 0.9811 0.0308
vn -0.1703 0.9812 0.0907
vn -0.6239 0.6934 0.3605
vn -0.7153 0.6928 0.0914
vn -0.1703 -0.9812 0.0907
vn -0.1911 -0.9811 0.0308
vn -0.7153 -0.6928 0.0914
vn -0.6239 -0.6934 0.3605
vn -0.1140 -0.9807 0.1590
vn 0.0574 -0.9732 0.2225
vn 0.1230 -0.6920 0.7113
vn -0.3997 -0.7242 0.5619
vn 0.0574 0.9732 0.2225
vn -0.1140 0.9807 0.1590
vn -0.3997 0.7242 0.5619
vn 0.1230 0.6920 0.7113
vn -0.2413 -0.9704 0.0099
vn -0.7222 -0.6844 0.1004
vn -0.2413 0.9704 0.0099
vn -0.7222 0.6844 0.1004
vn -0.1821 0.9811 -0.0651
vn -0.0726 0.9686 -0.2377
vn -0.2844 0.6806 -0.6752
vn -0.6483 0.7279 -0.2233
vn -0.0726 -0.9686 -0.2377
vn -0.1821 -0.9811 -0.0651
vn -0.6483 -0.7279 -0.2233
vn -0.2844 -0.6806 -0.6752
vn -0.1966 0.9707 0.1379
vn -0.6321 0.6875 0.3576
vn -0.1966 -0.9707 0.1379
vn -0.6321 -0.6875 0.3576
vn 0.1820 0.9811 -0.0652
vn 0.1964 0.9708 0.1377
vn 0.6318 0.6878 0.3574
vn 0.6481 0.7280 -0.2234
vn 0.1964 -0.9708 0.1377
vn 0.1820 -0.9811 -0.0652
vn 0.6481 -0.7280 -0.2234
vn 0.6318 -0.6878 0.3574
vn 0.0726 0.9686 -0.2378
vn 0.2843 0.6806 -0.6752
vn 0.0726 -0.9686 -0.2378
vn 0.2843 -0.6806 -0.6752
vn 0.1137 0.9807 0.1592
vn -0.0576 0.9731 0.2229
vn -0.1231 0.6917 0.7116
vn 0.3994 0.7243 0.5620
vn -0.0576 -0.9731 0.2229
vn 0.1137 -0.9807 0.1592
vn 0.3994 -0.7243 0.5620
vn -0.1231 -0.6917 0.7116
vn 0.2406 0.9706 0.0100
vn 0.7217 0.6849 0.1003
vn 0.2407 -0.9706 0.0100
vn 0.7217 -0.6849 0.1003
vn -0.0002 0.9803 -0.1975
vn 0.1845 0.9711 -0.1512
vn 0.5181 0.6852 -0.5119
vn -0.0002 0.7214 -0.6926
vn 0.1845 -0.9711 -0.1512
vn -0.0002 -0.9803 -0.1975
vn -0.0002 -0.7214 -0.6926
vn 0.5181 -0.6852 -0.5119
vn -0.1850 0.9710 -0.1515
vn -0.5185 0.6847 -0.5122
vn -0.1850 -0.9710 -0.1515
vn -0.5185 -0.6847 -0.5122
vn 0.1263 -0.7034 0.6995
vn -0.1265 -0.7031 0.6997
vn 0.0277 -0.9822 0.1859
vn -0.0277 -0.9821 0.1861
vn -0.1265 0.7031 0.6997
vn 0.1263 0.7034 0.6995
vn -0.0277 0.9821 0.1861
vn 0.0277 0.9822 0.1859
usemtl toybox.002
s 1
f 136/1/1 3/2/1 1/3/1
f 31/4/1 69/5/1 1/3/1
f 144/6/2 148/7/3 63/8/4 52/9/5
f 96/10/6 103/11/6 2/12/6
f 7/13/1 105/14/1 1/3/1
f 19/15/6 78/16/6 2/12/6
f 43/17/1 87/18/1 1/3/1
f 127/19/6 15/20/6 2/12/6
f 15/20/6 19/15/6 2/12/6
f 108/21/7 115/22/8 48/23/9 40/24/10
f 54/25/11 61/26/12 36/27/13 28/28/14
f 73/29/1 21/30/1 1/3/1
f 109/31/1 39/32/1 1/3/1
f 1/3/1 145/33/1 51/34/1
f 60/35/6 66/36/6 2/12/6
f 75/37/1 73/29/1 1/3/1
f 79/38/15 72/39/16 76/40/17 84/41/18
f 111/42/1 109/31/1 1/3/1
f 115/22/8 108/21/7 112/43/19 120/44/20
f 93/45/1 91/46/1 1/3/1
f 90/47/21 97/48/22 150/49/23 142/50/24
f 130/51/6 127/19/6 2/12/6
f 132/52/1 138/53/1 1/3/1
f 55/54/1 27/55/1 1/3/1
f 42/56/25 46/57/26 99/58/27 88/59/28
f 78/16/6 85/60/6 2/12/6
f 91/46/1 141/61/1 1/3/1
f 69/5/1 75/37/1 1/3/1
f 30/62/29 28/28/14 36/27/13 34/63/30
f 12/64/31 4/65/32 135/66/33 124/67/34
f 117/68/35 106/69/36 6/70/37 10/71/38
f 84/41/18 76/40/17 70/72/39 81/73/40
f 33/74/6 37/75/6 2/12/6
f 42/56/25 40/24/10 48/23/9 46/57/26
f 102/76/41 94/77/42 88/59/28 99/58/27
f 31/4/1 1/3/1 27/55/1
f 52/9/5 63/8/4 67/78/43 57/79/44
f 25/80/1 132/52/1 1/3/1
f 118/81/6 9/82/6 2/12/6
f 114/83/6 121/84/6 2/12/6
f 58/85/1 55/54/1 1/3/1
f 148/7/3 144/6/2 142/50/24 150/49/23
f 57/79/44 67/78/43 61/26/12 54/25/11
f 45/86/6 49/87/6 2/12/6
f 120/44/20 112/43/19 106/69/36 117/68/35
f 138/53/1 136/1/1 1/3/1
f 9/82/6 13/88/6 2/12/6
f 30/62/29 34/63/30 81/73/40 70/72/39
f 39/32/1 43/17/1 1/3/1
f 51/34/1 58/85/1 1/3/1
f 24/89/45 16/90/46 126/91/47 133/92/48
f 24/89/45 22/93/49 18/94/50 16/90/46
f 87/18/1 93/45/1 1/3/1
f 103/11/6 100/95/6 2/12/6
f 105/14/1 111/42/1 1/3/1
f 82/96/6 33/74/6 2/12/6
f 37/75/6 60/35/6 2/12/6
f 72/39/16 79/38/15 18/94/50 22/93/49
f 121/84/6 118/81/6 2/12/6
f 100/95/6 45/86/6 2/12/6
f 124/67/34 135/66/33 139/97/51 129/98/52
f 25/80/1 1/3/1 21/30/1
f 64/99/6 147/100/6 2/12/6
f 123/101/6 130/51/6 2/12/6
f 66/36/6 64/99/6 2/12/6
f 129/102/52 139/103/51 133/92/48 126/91/47
f 49/87/6 114/83/6 2/12/6
f 13/88/6 123/101/6 2/12/6
f 85/60/6 82/96/6 2/12/6
f 2/12/6 151/104/6 96/10/6
f 3/2/1 7/13/1 1/3/1
f 147/100/6 151/104/6 2/12/6
f 141/61/1 145/33/1 1/3/1
f 97/48/22 90/47/21 94/77/42 102/76/41
f 7/13/53 3/2/54 5/105/55 8/106/56
f 8/106/56 5/105/55 4/107/32 6/108/37
f 13/88/57 9/82/58 11/109/59 14/110/60
f 14/110/60 11/109/59 10/111/38 12/112/31
f 19/15/61 15/20/62 17/113/63 20/114/64
f 20/114/64 17/113/63 16/115/46 18/116/50
f 25/80/65 21/30/66 23/117/67 26/118/68
f 26/118/68 23/117/67 22/119/49 24/120/45
f 49/87/69 45/86/70 47/121/71 50/122/72
f 50/122/72 47/121/71 46/123/26 48/124/9
f 43/17/73 39/32/74 41/125/75 44/126/76
f 44/126/76 41/125/75 40/127/10 42/128/25
f 37/75/77 33/74/78 35/129/79 38/130/80
f 38/130/80 35/129/79 34/131/30 36/132/13
f 31/4/81 27/55/82 29/133/83 32/134/84
f 32/134/84 29/133/83 28/135/14 30/136/29
f 58/85/85 51/34/86 53/137/87 59/138/88
f 59/138/88 53/137/87 52/139/5 57/140/44
f 64/99/89 66/36/90 68/141/91 65/142/92
f 65/142/92 68/141/91 67/143/43 63/144/4
f 55/54/93 58/85/85 59/138/88 56/145/94
f 56/145/94 59/138/88 57/140/44 54/146/11
f 66/36/90 60/35/95 62/147/96 68/141/91
f 68/141/91 62/147/96 61/148/12 67/143/43
f 85/60/97 78/16/98 80/149/99 86/150/100
f 86/150/100 80/149/99 79/151/15 84/152/18
f 73/29/101 75/37/102 77/153/103 74/154/104
f 74/154/104 77/153/103 76/155/17 72/156/16
f 82/96/105 85/60/97 86/150/100 83/157/106
f 83/157/106 86/150/100 84/152/18 81/158/40
f 75/37/102 69/5/107 71/159/108 77/153/103
f 77/153/103 71/159/108 70/160/39 76/155/17
f 121/84/109 114/83/110 116/161/111 122/162/112
f 122/162/112 116/161/111 115/163/8 120/164/20
f 109/31/113 111/42/114 113/165/115 110/166/116
f 110/166/116 113/165/115 112/167/19 108/168/7
f 118/81/117 121/84/109 122/162/112 119/169/118
f 119/169/118 122/162/112 120/164/20 117/170/35
f 111/42/114 105/14/119 107/171/120 113/165/115
f 113/165/115 107/171/120 106/172/36 112/167/19
f 103/11/121 96/10/122 98/173/123 104/174/124
f 104/174/124 98/173/123 97/175/22 102/176/41
f 91/46/125 93/45/126 95/177/127 92/178/128
f 92/178/128 95/177/127 94/179/42 90/180/21
f 100/95/129 103/11/121 104/174/124 101/181/130
f 101/181/130 104/174/124 102/176/41 99/182/27
f 93/45/126 87/18/131 89/183/132 95/177/127
f 95/177/127 89/183/132 88/184/28 94/179/42
f 130/51/133 123/101/134 125/185/135 131/186/136
f 131/186/136 125/185/135 124/187/34 129/188/52
f 136/1/137 138/53/138 140/189/139 137/190/140
f 137/190/140 140/189/139 139/191/51 135/192/33
f 127/19/141 130/51/133 131/186/136 128/193/142
f 128/193/142 131/186/136 129/188/52 126/194/47
f 138/53/138 132/52/143 134/195/144 140/189/139
f 140/189/139 134/195/144 133/196/48 139/191/51
f 27/55/82 55/54/93 56/145/94 29/133/83
f 29/133/83 56/145/94 54/146/11 28/135/14
f 60/35/95 37/75/77 38/130/80 62/147/96
f 62/147/96 38/130/80 36/132/13 61/148/12
f 69/5/107 31/4/81 32/134/84 71/159/108
f 71/159/108 32/134/84 30/136/29 70/160/39
f 33/74/78 82/96/105 83/157/106 35/129/79
f 35/129/79 83/157/106 81/158/40 34/131/30
f 21/30/66 73/29/101 74/154/104 23/117/67
f 23/117/67 74/154/104 72/156/16 22/119/49
f 78/16/98 19/15/61 20/114/64 80/149/99
f 80/149/99 20/114/64 18/116/50 79/151/15
f 87/18/131 43/17/73 44/126/76 89/183/132
f 89/183/132 44/126/76 42/128/25 88/184/28
f 45/86/70 100/95/129 101/181/130 47/121/71
f 47/121/71 101/181/130 99/182/27 46/123/26
f 9/82/58 118/81/117 119/169/118 11/109/59
f 11/109/59 119/169/118 117/170/35 10/111/38
f 105/14/119 7/13/53 8/106/56 107/171/120
f 107/171/120 8/106/56 6/108/37 106/172/36
f 39/32/74 109/31/113 110/166/116 41/125/75
f 41/125/75 110/166/116 108/168/7 40/127/10
f 114/83/110 49/87/69 50/122/72 116/161/111
f 116/161/111 50/122/72 48/124/9 115/163/8
f 123/101/134 13/88/57 14/110/60 125/185/135
f 125/185/135 14/110/60 12/112/31 124/187/34
f 3/2/54 136/1/137 137/190/140 5/105/55
f 5/105/55 137/190/140 135/192/33 4/107/32
f 132/52/143 25/80/65 26/118/68 134/195/144
f 134/195/144 26/118/68 24/120/45 133/196/48
f 15/20/62 127/19/141 128/193/142 17/113/63
f 17/113/63 128/193/142 126/194/47 16/115/46
f 142/197/24 144/198/2 146/199/145 143/200/146
f 143/200/146 146/199/145 145/33/147 141/61/148
f 148/201/3 150/202/23 152/203/149 149/204/150
f 149/204/150 152/203/149 151/104/151 147/100/152
f 141/61/148 91/46/125 92/178/128 143/200/146
f 143/200/146 92/178/128 90/180/21 142/197/24
f 96/10/122 151/104/151 152/203/149 98/173/123
f 98/173/123 152/203/149 150/202/23 97/175/22
f 51/34/86 145/33/147 146/199/145 53/137/87
f 53/137/87 146/199/145 144/198/2 52/139/5
f 147/100/152 64/99/89 65/142/92 149/204/150
f 149/204/150 65/142/92 63/144/4 148/201/3
f 12/64/31 10/71/38 6/70/37 4/65/32
